<?xml version="1.0" standalone="no"?><!DOCTYPE svg PUBLIC "-//W3C//DTD SVG 1.1//EN" "http://www.w3.org/Graphics/SVG/1.1/DTD/svg11.dtd"><svg t="1754486638859" class="icon" viewBox="0 0 1202 1024" version="1.1" xmlns="http://www.w3.org/2000/svg" p-id="8551" xmlns:xlink="http://www.w3.org/1999/xlink" width="281.71875" height="240"><path d="M705.732279 554.172458h-65.894466a9.225225 9.225225 0 0 1-5.930502-15.814672 274.120978 274.120978 0 0 0 92.252252-204.272844A263.577864 263.577864 0 0 0 470.489036 65.894466a263.577864 263.577864 0 0 0-253.693694 270.16731 276.097812 276.097812 0 0 0 88.298584 204.272844 8.566281 8.566281 0 0 1-5.271557 15.814672h-65.894466a233.925354 233.925354 0 0 0 0 467.850708h470.486487a233.925354 233.925354 0 0 0 0-467.850708z m-237.220077-383.505791A157.487773 157.487773 0 0 1 620.728418 333.425997a156.828829 156.828829 0 0 1-152.216216 162.100387 156.828829 156.828829 0 0 1-152.216217-162.100387 157.487773 157.487773 0 0 1 152.216217-162.75933z m329.472329 631.927928a102.136422 102.136422 0 0 1-106.749035 95.546975H247.765741a102.795367 102.795367 0 0 1-107.40798-95.546975v-33.606178a102.136422 102.136422 0 0 1 107.40798-95.546976h442.151866a102.136422 102.136422 0 0 1 106.749035 95.546976z" fill="#1296db" p-id="8552"></path><path d="M1045.088778 144.30888h-92.911197V51.397683a51.397683 51.397683 0 0 0-51.397683-51.397683 52.056628 52.056628 0 0 0-52.056628 51.397683v92.911197h-92.252252a51.397683 51.397683 0 0 0 0 102.795367h92.252252v92.911197a52.056628 52.056628 0 0 0 52.056628 51.397683 51.397683 51.397683 0 0 0 51.397683-51.397683V247.104247h92.911197a51.397683 51.397683 0 1 0 0-102.795367z" fill="#1296db" p-id="8553"></path></svg>