<?xml version="1.0" standalone="no"?><!DOCTYPE svg PUBLIC "-//W3C//DTD SVG 1.1//EN" "http://www.w3.org/Graphics/SVG/1.1/DTD/svg11.dtd"><svg t="1755827224694" class="icon" viewBox="0 0 1024 1024" version="1.1" xmlns="http://www.w3.org/2000/svg" p-id="5113" xmlns:xlink="http://www.w3.org/1999/xlink" width="256" height="256"><path d="M10.274304 853.333333L447.180971 95.573333c29.013333-49.493333 100.693333-49.493333 129.706666 0L1013.794304 853.333333c29.013333 49.493333-6.826667 112.64-64.853333 112.64H75.127637C17.100971 965.973333-18.739029 902.826667 10.274304 853.333333z" fill="#FFF500" p-id="5114"></path><path d="M44.407637 853.333333L467.660971 119.466667c18.773333-34.133333 68.266667-34.133333 87.04 0l423.253333 733.866666c18.773333 34.133333-5.12 75.093333-44.373333 75.093334H88.780971c-39.253333 0-63.146667-40.96-44.373334-75.093334z" p-id="5115"></path><path d="M114.380971 856.746667L512.034304 167.253333l397.653333 689.493334z" fill="#FFF500" p-id="5116"></path><path d="M483.020971 633.173333c5.12 15.36 15.36 23.893333 29.013333 23.893334s23.893333-10.24 29.013333-23.893334l20.48-269.653333c0-29.013333-23.893333-49.493333-49.493333-49.493333-29.013333 0-49.493333 23.893333-49.493333 54.613333l20.48 264.533333z m29.013333 73.386667c-29.013333 0-49.493333 20.48-49.493333 49.493333s20.48 49.493333 49.493333 49.493334 49.493333-20.48 49.493333-49.493334-20.48-49.493333-49.493333-49.493333z" p-id="5117"></path></svg>