<?xml version="1.0" standalone="no"?><!DOCTYPE svg PUBLIC "-//W3C//DTD SVG 1.1//EN" "http://www.w3.org/Graphics/SVG/1.1/DTD/svg11.dtd"><svg t="1755766387972" class="icon" viewBox="0 0 1024 1024" version="1.1" xmlns="http://www.w3.org/2000/svg" p-id="6474" xmlns:xlink="http://www.w3.org/1999/xlink" width="256" height="256"><path d="M1005.191 579.695L834.83 409.335c-14.175-14.175-35.198-17.327-52.419-9.458-12.899 5.853-13.594 36.418-13.594 36.418v108.784H353.714c-25.12 0-45.482 20.364-45.482 45.483v56.652c0 25.119 20.361 45.482 45.482 45.482h415.1v99.907s-0.759 12.808 5.331 21.376c2.94 4.879 7.359 10.105 13.865 13.682 14.686 7.733 34.148 1.08 46.818-11.592l170.36-170.359c18.228-18.229 18.23-47.783 0.003-66.015zM670.57 430.832c25.121 0 45.483-20.363 45.483-45.483V328.7c0-25.12-20.362-45.485-45.483-45.485H255.625V165.065s0.762-12.81-5.328-21.377c-2.94-4.88-7.358-10.106-13.867-13.683-14.686-7.733-34.148-1.078-46.818 11.592L19.251 311.958c-18.228 18.228-18.23 47.784 0 66.013l170.36 170.36c14.175 14.175 35.198 17.327 52.419 9.458 12.9-5.852 13.594-36.418 13.594-36.418v-90.54H670.57z" p-id="6475" fill="#1296db"></path></svg>