<?xml version="1.0" standalone="no"?><!DOCTYPE svg PUBLIC "-//W3C//DTD SVG 1.1//EN" "http://www.w3.org/Graphics/SVG/1.1/DTD/svg11.dtd"><svg t="1753374425714" class="icon" viewBox="0 0 1024 1024" version="1.1" xmlns="http://www.w3.org/2000/svg" p-id="5270" xmlns:xlink="http://www.w3.org/1999/xlink" width="240" height="240"><path d="M782.7456 739.072a22.4768 22.4768 0 1 1 0 44.9536H213.2992a22.4768 22.4768 0 1 1 0-44.9536h569.4464z m-0.256-407.7056L425.7792 688.128l-139.0592 14.1824 14.2336-139.0592 310.1696-310.1696 46.5408-46.592a56.7296 56.7296 0 0 1 78.336 0l46.4896 46.592c10.4448 10.3424 16.2816 24.4736 16.2304 39.168 0 14.7456-5.7344 28.672-16.2304 39.1168z m-445.44 320.6144l68.2496-6.9632 282.9824-282.9824-61.2864-61.2864L344.064 583.7312l-6.9632 68.2496z m359.7824-416.7168a10.3424 10.3424 0 0 0-7.3728 3.072l-30.6688 30.6176 61.2864 61.2864 30.6176-30.6176a10.4448 10.4448 0 0 0 0-14.7456l-46.4896-46.592a10.3936 10.3936 0 0 0-7.3728-3.0208z" fill="#008CFF" p-id="5271"></path></svg>