<?xml version="1.0" standalone="no"?><!DOCTYPE svg PUBLIC "-//W3C//DTD SVG 1.1//EN" "http://www.w3.org/Graphics/SVG/1.1/DTD/svg11.dtd"><svg t="1753359219936" class="icon" viewBox="0 0 1024 1024" version="1.1" xmlns="http://www.w3.org/2000/svg" p-id="11638" xmlns:xlink="http://www.w3.org/1999/xlink" width="240" height="240"><path d="M560.697 472.022a23 23 0 0 1 13.27 4.214L820.026 650.05c10.375 7.33 12.844 21.681 5.515 32.056a23 23 0 0 1-5.1 5.215L574.383 869.495c-10.21 7.559-24.613 5.41-32.171-4.799a23 23 0 0 1-4.515-13.686V733.816h-201.16c-143.36 0.815-221.206-70.034-233.537-212.546 12.457 13.043 66.902 90 233.537 90 111.09 0 178.144-1.277 201.16-3.828v-112.42c0-12.703 10.297-23 23-23zM406.788 119.304a23 23 0 0 1 4.515 13.686v117.194h201.16c143.36-0.815 221.206 70.034 233.537 212.546-12.457-13.043-66.902-90-233.537-90-111.09 0-178.144 1.277-201.16 3.828v112.42c0 12.703-10.297 23-23 23a23 23 0 0 1-13.27-4.214L128.974 333.95c-10.375-7.33-12.844-21.681-5.515-32.056a23 23 0 0 1 5.1-5.215l246.058-182.173c10.21-7.559 24.613-5.41 32.171 4.799z" fill="#1296db" p-id="11639"></path></svg>