<?xml version="1.0" standalone="no"?><!DOCTYPE svg PUBLIC "-//W3C//DTD SVG 1.1//EN" "http://www.w3.org/Graphics/SVG/1.1/DTD/svg11.dtd"><svg t="1753359069142" class="icon" viewBox="0 0 1024 1024" version="1.1" xmlns="http://www.w3.org/2000/svg" p-id="9516" xmlns:xlink="http://www.w3.org/1999/xlink" width="240" height="240"><path d="M512 0a512 512 0 1 0 512 512A512 512 0 0 0 512 0z m0 945.230769a433.230769 433.230769 0 1 1 433.230769-433.230769 433.230769 433.230769 0 0 1-433.230769 433.230769z" fill="#1296db" p-id="9517"></path><path d="M691.2 598.252308L551.384615 494.670769V236.307692a39.384615 39.384615 0 0 0-39.384615-39.384615 39.384615 39.384615 0 0 0-39.384615 39.384615v277.661539a42.141538 42.141538 0 0 0 16.541538 32.689231l155.569231 114.60923a39.384615 39.384615 0 1 0 46.867692-63.40923z" fill="#1296db" p-id="9518"></path></svg>