<?xml version="1.0" standalone="no"?><!DOCTYPE svg PUBLIC "-//W3C//DTD SVG 1.1//EN" "http://www.w3.org/Graphics/SVG/1.1/DTD/svg11.dtd"><svg t="1754486677883" class="icon" viewBox="0 0 1303 1024" version="1.1" xmlns="http://www.w3.org/2000/svg" p-id="10654" xmlns:xlink="http://www.w3.org/1999/xlink" width="305.390625" height="240"><path d="M767.271826 524.495669h-70.402103a9.856294 9.856294 0 0 1-6.336189-16.896504A295.688834 295.688834 0 0 0 789.096478 288.648623 281.608413 281.608413 0 0 0 515.936318 0a281.608413 281.608413 0 0 0-271.048098 288.648623 297.800897 297.800897 0 0 0 94.338819 218.950542 9.856294 9.856294 0 0 1-5.632169 16.896504h-70.402103a249.927467 249.927467 0 1 0 0 499.150912h502.671017a249.927467 249.927467 0 1 0 0-499.150912z m-253.447571-409.740241A167.557006 167.557006 0 0 1 676.453113 287.944602a167.557006 167.557006 0 0 1-162.628858 173.189174 167.557006 167.557006 0 0 1-162.628859-173.189174 167.557006 167.557006 0 0 1 162.628859-173.189174z m352.010516 674.45215a109.12326 109.12326 0 0 1-114.051407 102.083049H277.977209a109.12326 109.12326 0 0 1-114.755429-102.083049v-35.905073a109.12326 109.12326 0 0 1 114.755429-102.08305h472.398113a109.12326 109.12326 0 0 1 114.051407 102.08305z" fill="#d81e06" p-id="10655"></path><path d="M1134.770805 85.890566h-308.361212a55.617662 55.617662 0 0 0-54.91364 55.617662 54.913641 54.913641 0 0 0 54.91364 54.91364h308.361212a54.913641 54.913641 0 0 0 54.913641-55.617661 55.617662 55.617662 0 0 0-54.913641-54.913641z" fill="#d81e06" p-id="10656"></path></svg>