<?xml version="1.0" standalone="no"?><!DOCTYPE svg PUBLIC "-//W3C//DTD SVG 1.1//EN" "http://www.w3.org/Graphics/SVG/1.1/DTD/svg11.dtd"><svg t="1755843675915" class="icon" viewBox="0 0 1024 1024" version="1.1" xmlns="http://www.w3.org/2000/svg" p-id="24813" xmlns:xlink="http://www.w3.org/1999/xlink" width="256" height="256"><path d="M528.782222 583.907556v-62.577778s111.217778-97.28 111.217778-250.254222C640 187.733333 640 0 424.504889 0S209.009778 180.736 209.009778 250.254222c0 180.736 104.277333 271.075556 104.277333 271.075556s0 55.637333-20.821333 76.458666c-4.608 4.608-22.016 11.946667-46.250667 22.016-85.674667 35.896889-256.568889 107.52-245.76 221.297778 13.937778 145.976889 264.192 139.036444 264.192 139.036445h278.016s-76.458667-83.456-83.399111-194.673778c0-104.220444 69.518222-201.557333 69.518222-201.557333z" fill="#1296db" p-id="24814"></path><path d="M768 1024a256 256 0 1 1 0-512.056889 256 256 0 0 1 0 512.056889z m-113.777778-284.444444a28.444444 28.444444 0 1 0 0 56.888888h227.555556a28.444444 28.444444 0 1 0 0-56.888888h-227.555556z" fill="#1296db" p-id="24815"></path></svg>