<?xml version="1.0" standalone="no"?><!DOCTYPE svg PUBLIC "-//W3C//DTD SVG 1.1//EN" "http://www.w3.org/Graphics/SVG/1.1/DTD/svg11.dtd"><svg t="1755587262678" class="icon" viewBox="0 0 1024 1024" version="1.1" xmlns="http://www.w3.org/2000/svg" p-id="5817" xmlns:xlink="http://www.w3.org/1999/xlink" width="256" height="256"><path d="M512 0C229.229714 0 0 229.229714 0 512S229.229714 1024 512 1024 1024 794.770286 1024 512 794.770286 0 512 0z m0 950.857143a438.857143 438.857143 0 1 1 0-877.714286 438.857143 438.857143 0 0 1 0 877.714286z" fill="#CC3333" p-id="5818"></path><path d="M670.729939 313.740727m25.859905 25.859905l0 0q25.859905 25.859905 0 51.719811l-293.078925 293.078925q-25.859905 25.859905-51.71981 0l0 0q-25.859905-25.859905 0-51.719811l293.078925-293.078925q25.859905-25.859905 51.71981 0Z" fill="#CC3333" p-id="5819"></path><path d="M722.449749 658.539462m-25.859905 25.859906l0 0q-25.859905 25.859905-51.71981 0l-293.078925-293.078925q-25.859905-25.859905 0-51.719811l0 0q25.859905-25.859905 51.71981 0l293.078925 293.078925q25.859905 25.859905 0 51.719811Z" fill="#CC3333" p-id="5820"></path></svg>