<?xml version="1.0" standalone="no"?><!DOCTYPE svg PUBLIC "-//W3C//DTD SVG 1.1//EN" "http://www.w3.org/Graphics/SVG/1.1/DTD/svg11.dtd"><svg t="1753357657533" class="icon" viewBox="0 0 1024 1024" version="1.1" xmlns="http://www.w3.org/2000/svg" p-id="4443" xmlns:xlink="http://www.w3.org/1999/xlink" width="240" height="240"><path d="M979.456 382.976c-24.064 0-43.008-19.456-43.008-43.008V88.576H686.08c-24.064 0-43.008-18.944-43.008-43.008S662.528 2.56 686.08 2.56h262.656c41.472 0 74.24 33.792 74.24 74.24v263.168c-0.512 23.04-19.968 43.008-43.52 43.008zM708.608 472.576H320c-24.064 0-43.008-19.456-43.008-43.008s19.456-43.008 43.008-43.008h388.608c24.064 0 43.008 19.456 43.008 43.008s-18.944 43.008-43.008 43.008zM678.4 622.592H350.208c-24.064 0-43.008-19.456-43.008-43.008s19.456-43.008 43.008-43.008h328.192c24.064 0 43.008 19.456 43.008 43.008s-18.944 43.008-43.008 43.008z" fill="#1296db" p-id="4444"></path><path d="M514.56 786.432c-24.064 0-43.008-19.456-43.008-43.008V439.808c0-24.064 19.456-43.008 43.008-43.008s43.008 19.456 43.008 43.008V742.4c1.024 24.576-18.944 44.032-43.008 44.032z" fill="#1296db" p-id="4445"></path><path d="M503.808 466.432c-11.264 0-22.528-4.096-30.208-12.8L357.376 337.408c-16.896-16.896-16.896-44.544 0-61.44s45.056-16.896 61.44 0l115.2 116.224c16.896 16.896 16.896 45.056 0 61.44-8.192 8.704-18.944 12.8-30.208 12.8z" fill="#1296db" p-id="4446"></path><path d="M527.36 453.632c-11.264 0-22.528-4.096-30.208-11.776-16.896-15.872-16.896-41.472 0-57.856l116.224-108.544c16.896-15.872 44.544-15.872 61.44 0s16.896 41.472 0 57.344L558.08 441.856c-8.704 7.68-19.456 11.776-30.72 11.776z" fill="#1296db" p-id="4447"></path><path d="M936.96 514.56c-1.024 232.96-190.976 422.4-424.96 422.4s-423.936-190.464-423.936-423.936 190.464-424.96 424.96-424.96h1.536V1.024h-1.536C229.888 1.024 1.024 229.888 1.024 513.024s228.864 510.976 512 510.976c282.624 0 510.464-227.84 510.976-509.44h-87.04z" fill="#1296db" p-id="4448"></path><path d="M472.064 44.032c0 24.064 19.456 43.008 43.008 43.008s43.008-19.456 43.008-43.008-19.456-43.008-43.008-43.008-43.008 18.944-43.008 43.008z m464.896 468.992c0 24.064 19.456 43.008 43.008 43.008s43.008-19.456 43.008-43.008-19.456-43.008-43.008-43.008-43.008 18.944-43.008 43.008z" fill="#1296db" p-id="4449"></path></svg>