<?xml version="1.0" standalone="no"?><!DOCTYPE svg PUBLIC "-//W3C//DTD SVG 1.1//EN" "http://www.w3.org/Graphics/SVG/1.1/DTD/svg11.dtd"><svg t="1755519787861" class="icon" viewBox="0 0 1024 1024" version="1.1" xmlns="http://www.w3.org/2000/svg" p-id="5813" xmlns:xlink="http://www.w3.org/1999/xlink" width="256" height="256"><path d="M547.718297 525.93467c-17.404133 12.797156-32.248834 27.129972-44.022218 44.534105-2.559431 3.583204-6.142635 2.559431-9.213953 2.559431h-306.107983c-17.404133 0-28.66563-14.332815-24.058654-30.201289 2.559431-9.213953 10.237725-15.868474 19.451678-16.892247h363.95113zM327.095319 715.844472h-140.256835c-11.773384 0-20.47545-6.142635-24.058654-15.868474-3.071318-9.725839 0-20.47545 8.19018-26.618085 5.630749-4.09509 11.773384-4.606976 18.427906-4.606977h278.466125c4.606976 0 6.654521 0.511886 5.630748 6.142635-1.023773 11.261498-1.535659 22.522995 1.023773 33.784494 1.535659 6.142635-1.023773 7.678294-7.166408 7.678293-46.069763-1.023773-93.163299-0.511886-140.256835-0.511886zM311.226845 430.21194h-122.340815c-17.916019 0-27.641858-9.725839-27.129972-25.594313 0.511886-11.773384 9.213953-20.987337 20.987336-21.499223 7.678294-0.511886 15.356588 0 23.034882 0h229.83693c16.38036 0 26.106199 10.237725 25.594313 25.082427-0.511886 10.237725-7.678294 18.939792-17.916019 20.987336-4.09509 1.023773-7.678294 1.023773-11.773384 1.023773h-120.293271z" fill="#ffffff" p-id="5814"></path><path d="M892.217749 307.871124c-0.511886-41.974673-12.797156-79.854256-42.486559-110.567432-49.141081-50.164853-98.794048-100.329707-148.958902-149.470788-32.248834-31.225062-71.664076-47.093536-116.19818-47.605422-134.626086-0.511886-269.252172 0-404.390145 0-27.129972 0-53.236171 6.142635-76.782939 19.451678-58.355034 33.272607-87.53255 83.43746-87.53255 150.49456V850.470558c0 12.28527 0.511886 24.57054 3.071318 36.343925 16.892247 81.389915 83.43746 135.137972 166.363034 135.137972h411.044666c4.606976 0.511886 6.142635-1.023773 5.630748-5.630749-0.511886-8.19018-0.511886-16.38036 0-24.57054 1.023773-8.702066-1.535659-10.749611-10.749611-10.749612-135.137972 0.511886-270.787831 0.511886-405.925803 0-73.711621 0-128.483451-54.77183-128.995338-127.971564v-94.698958-587.133539c0-75.759166 54.259943-130.01911 130.530996-130.01911h393.128647c7.678294 0 9.213953 2.047545 9.213953 9.213953 0 45.557877-1.535659 91.115754 0.511886 136.673631 3.583204 74.735394 67.568986 136.161745 142.30438 136.161745 36.343924 0 72.175963 0.511886 108.519887 0 8.702066 0 10.749611 2.047545 10.749612 10.749611-0.511886 47.093536 0 94.187072-0.511887 140.768721 0 6.142635 1.535659 8.702066 8.19018 8.19018 8.19018-0.511886 16.38036-0.511886 24.570541 0 6.654521 0.511886 8.702066-1.535659 8.702066-8.19018 0-55.795602 0.511886-111.591204 0-166.87492z m-50.164853-25.594313c-37.367697-0.511886-74.735394 0.511886-112.103091 0-55.283716-1.023773-99.305934-48.117308-99.81782-105.960456v-52.724284-65.009555c0-6.142635 1.535659-7.678294 7.166407-4.606977 13.309043 6.654521 25.082427 14.332815 35.320152 25.082427l143.840039 143.840039c14.844702 14.844702 24.57054 33.272607 30.201289 53.748057 1.535659 4.09509 1.535659 5.630749-4.606976 5.630749z" fill="#ffffff" p-id="5815"></path><path d="M1013.534793 975.882692c-1.535659-5.118863-5.118863-8.702066-8.702067-12.285271-31.736948-31.736948-62.96201-63.473896-95.210844-94.698957-4.09509-4.09509-4.09509-6.654521-0.511886-11.261498 31.225062-39.927128 45.557877-84.973119 43.510332-135.649859-5.118863-106.984228-93.675185-191.957347-203.730731-191.957347-8.702066 0-19.963564 0.511886-30.713176 2.559431-110.055546 17.916019-184.279053 120.293271-167.898693 230.860703 22.522995 148.958901 196.052437 222.158636 318.393253 133.602314 5.118863-3.583204 7.166408-3.583204 11.773384 1.023772 31.225062 31.736948 62.450124 62.96201 94.187072 94.187072 2.559431 2.559431 5.118863 5.118863 8.19018 7.166408 7.166408 4.606976 16.38036 4.606976 23.034882-0.511887 7.166408-5.630749 10.237725-14.332815 7.678294-23.034881z m-264.645196-81.901802c-87.53255 0-159.708513-73.199735-159.708513-161.756058 0-89.068209 72.687849-161.244172 161.244172-161.244171s161.244172 72.687849 161.244171 161.244171c0.511886 89.068209-72.687849 161.756058-162.77983 161.756058z" fill="#ffffff" p-id="5816"></path></svg>