<?xml version="1.0" standalone="no"?><!DOCTYPE svg PUBLIC "-//W3C//DTD SVG 1.1//EN" "http://www.w3.org/Graphics/SVG/1.1/DTD/svg11.dtd"><svg t="1753359174402" class="icon" viewBox="0 0 1024 1024" version="1.1" xmlns="http://www.w3.org/2000/svg" p-id="10592" xmlns:xlink="http://www.w3.org/1999/xlink" width="240" height="240"><path d="M415.415066 889.542531c-2.988408 0-5.976816-0.585143-8.965224-1.776327-13.709061-4.743837-20.856163-20.166531-16.091429-34.377143l305.946123-835.918367c5.370776-13.625469 20.27102-20.751673 34.60702-16.007837 13.709061 5.349878 20.856163 20.166531 16.091428 34.398041L441.056862 871.758367c-4.179592 10.657959-14.315102 17.784163-25.641796 17.784164z" fill="#1296db" p-id="10593"></path><path d="M605.147638 927.388735c-51.429878 0-107.645388-7.000816-167.455347-25.119347-173.453061-52.600163-290.690612-59.621878-391.774041-24.555102-13.750857 4.681143-29.298939-2.340571-34.084572-15.777959a26.122449 26.122449 0 0 1 16.154123-33.311347c113.037061-39.162776 240.43102-32.141061 425.837714 23.969959 218.906122 66.037551 381.011592-27.480816 440.821551-71.303837a27.209143 27.209143 0 0 1 37.679021 5.266286c8.965224 11.681959 6.561959 28.045061-5.391674 36.801306-50.238694 35.651918-164.466939 104.030041-321.786775 104.030041z" fill="#1296db" p-id="10594"></path><path d="M680.860944 1022.035592c-51.429878 0-107.666286-7.021714-167.476245-25.140245-173.453061-52.600163-290.690612-59.60098-391.753143-24.534204-13.750857 4.660245-29.298939-2.340571-34.084572-15.798857a26.122449 26.122449 0 0 1 16.133225-33.311347c113.057959-39.141878 240.451918-32.141061 425.858612 23.969959 218.906122 66.037551 380.990694-27.459918 440.800653-71.303837a27.209143 27.209143 0 0 1 37.679021 5.266286c8.986122 11.702857 6.582857 28.045061-5.370776 36.822204-49.653551 35.651918-164.466939 104.030041-321.786775 104.030041zM905.555801 700.290612a23.823673 23.823673 0 0 1-11.138612-2.340571l-3.510858-1.755429c-13.479184-6.436571-18.745469-21.650286-12.89404-35.108571l2.340571-5.830531a105.074939 105.074939 0 0 0-50.949224-139.723755c-52.140408-24.555102-114.813388-1.755429-140.016327 50.28049a26.331429 26.331429 0 0 1-35.150367 12.267102 26.331429 26.331429 0 0 1-12.873143-34.481633 105.158531 105.158531 0 0 0-51.555265-139.180408c-52.140408-23.949061-114.228245-1.734531-139.410286 49.110204a26.331429 26.331429 0 0 1-35.150368 12.288 27.021061 27.021061 0 0 1-12.89404-35.066775v-0.585143c11.702857-25.140245 12.894041-53.791347 3.510857-80.687021-9.362286-26.895673-28.692898-47.354776-54.48098-59.642775l11.138612-23.969959-11.138612 23.969959c-52.11951-23.969959-114.813388-1.755429-139.389388 49.695347a27.167347 27.167347 0 0 1-34.586122 12.873143c-12.873143-5.851429-19.330612-21.044245-13.458286-33.917388 41.001796-100.56098 118.909388-180.662857 219.073306-225.091918 100.749061-44.429061 212.636735-48.525061 315.141225-11.702858C916.694413 161.206857 1029.752372 403.267918 950.089352 621.338122l-22.256327 60.813062a25.077551 25.077551 0 0 1-14.628571 15.213714c-0.606041 2.319673-4.116898 2.925714-7.627755 2.925714z m-119.515429-246.742204c22.277224 0 45.118694 4.681143 66.204735 14.628572a159.723102 159.723102 0 0 1 69.130449 62.547591c24.596898-168.980898-72.056163-337.940898-239.009959-398.733061-142.356898-52.035918-299.92751-7.606857-398.336 98.805551a162.398041 162.398041 0 0 1 91.95102 12.267102 155.898776 155.898776 0 0 1 81.439347 88.879021c4.096 10.511673 6.436571 21.629388 8.192 32.141061 43.363265-25.70449 99.014531-30.385633 147.623184-7.585959a158.009469 158.009469 0 0 1 89.631347 119.849796 166.201469 166.201469 0 0 1 83.173877-22.799674z" fill="#1296db" p-id="10595"></path><path d="M453.386658 397.458286c-2.361469 0-4.137796 0-6.478367-0.585143-14.106122-3.510857-22.925061-17.533388-19.393307-31.555919 3.510857-15.192816 8.212898-30.385633 13.52098-44.408163a420.466939 420.466939 0 0 1 232.740572-243.043265 26.373224 26.373224 0 0 1 34.690612 14.022531c5.851429 13.437388-0.606041 28.630204-14.127021 34.481632-94.040816 39.706122-168.667429 117.446531-203.337143 212.657633-4.722939 12.267102-8.254694 25.119347-11.765551 38.556735-2.925714 12.267102-14.106122 19.853061-25.871673 19.853061z" fill="#1296db" p-id="10596"></path><path d="M700.902087 492.084245c-4.033306 0-7.523265-0.585143-11.556572-2.988408-12.705959-6.561959-17.909551-22.716082-11.556571-35.860898 5.788735-12.538776 11.556571-25.70449 15.610775-38.243266 34.648816-98.011429 27.731592-206.785306-17.909551-300.032a28.149551 28.149551 0 0 1 11.556572-36.44604c12.705959-6.582857 28.295837-1.191184 35.233959 11.953632 51.994122 105.785469 59.49649 230.692571 20.229224 342.454857a462.680816 462.680816 0 0 1-17.909551 43.634939c-5.22449 9.550367-14.44049 15.527184-23.698285 15.527184z" fill="#1296db" p-id="10597"></path></svg>