<?xml version="1.0" standalone="no"?><!DOCTYPE svg PUBLIC "-//W3C//DTD SVG 1.1//EN" "http://www.w3.org/Graphics/SVG/1.1/DTD/svg11.dtd"><svg t="1753358230081" class="icon" viewBox="0 0 1319 1024" version="1.1" xmlns="http://www.w3.org/2000/svg" p-id="7505" xmlns:xlink="http://www.w3.org/1999/xlink" width="309.140625" height="240"><path d="M942.20533668 792.28681542h-36.11943457a35.15625027 35.15625027 0 1 1 0-70.25230095h36.11943458a175.84144931 175.84144931 0 1 0 0-351.50230153 171.80811255 171.80811255 0 0 0-31.42390815 2.76915703 36.54082837 36.54082837 0 0 1-28.29355774-6.01990576 34.97565317 34.97565317 0 0 1-14.68857018-24.07962305 217.61959543 217.61959543 0 0 0-429.09888675 0 34.97565317 34.97565317 0 0 1-14.68857019 24.07962305 36.54082837 36.54082837 0 0 1-28.29355774 6.01990576 171.80811255 171.80811255 0 0 0-31.42390815-2.76915702 175.84144931 175.84144931 0 1 0 0 351.50230152h36.1194354a35.15625027 35.15625027 0 1 1 0 70.25230096h-36.1194354a246.15394904 246.15394904 0 1 1 0-492.0671022h9.39105286a291.06244638 291.06244638 0 0 1 559.12885317 0h9.39105286a246.15394904 246.15394904 0 1 1 0 492.0671022zM626.16028091 558.23287668l0.782588-0.60199091a34.73485647 34.73485647 0 0 1 9.51145121-6.80249295c0.78258802-0.4213938 1.38457809-1.08358264 2.22736487-1.44477768a35.4572449 35.4572449 0 0 1 29.13634451 0 19.38409662 19.38409662 0 0 1 2.16716611 1.44477768 34.97565317 34.97565317 0 0 1 9.57164995 6.80249295l0.78258802 0.60199091 126.41802182 140.56480069a34.55425937 34.55425937 0 0 1-4.27413263 48.46024237 36.90202258 36.90202258 0 0 1-49.90501923-2.04676859L689.36929222 674.95885019v222.73651565a36.11943457 36.11943457 0 0 1-72.23886996 0v-222.73651565l-63.20901132 70.25230096a36.72142548 36.72142548 0 0 1-34.73485649 12.52140491 36.11943457 36.11943457 0 0 1-27.81196435-24.07962388 34.55425937 34.55425937 0 0 1 8.36766898-35.09605068z" fill="#2589ff" p-id="7506"></path></svg>