<?xml version="1.0" standalone="no"?><!DOCTYPE svg PUBLIC "-//W3C//DTD SVG 1.1//EN" "http://www.w3.org/Graphics/SVG/1.1/DTD/svg11.dtd"><svg t="1753358024413" class="icon" viewBox="0 0 1024 1024" version="1.1" xmlns="http://www.w3.org/2000/svg" p-id="5578" xmlns:xlink="http://www.w3.org/1999/xlink" width="240" height="240"><path d="M903.864364 956.704314 120.695385 956.704314c-14.145162 0-25.612331-11.466146-25.612331-25.611308L95.083054 759.529583c0-14.145162 11.467169-25.611308 25.612331-25.611308s25.611308 11.466146 25.611308 25.611308l0 145.952116 731.946364 0L878.253056 759.529583c0-14.145162 11.466146-25.611308 25.611308-25.611308s25.611308 11.466146 25.611308 25.611308l0 171.563424C929.476695 945.238169 918.010549 956.704314 903.864364 956.704314z" p-id="5579"></path><path d="M288.712029 334.744947c-6.703679 0-13.399171-2.615571-18.423605-7.817036-9.827833-10.17371-9.547447-26.387997 0.627287-36.21583l224.799906-217.151715c9.92607-9.587356 25.663496-9.587356 35.588543 0l224.801952 217.151715c10.17371 9.827833 10.455119 26.041096 0.626263 36.214806-9.827833 10.17371-26.041096 10.455119-36.214806 0.627287L513.508865 127.591957 306.502208 327.554174C301.532009 332.35655 295.116903 334.744947 288.712029 334.744947z" p-id="5580"></path><path d="M513.508865 785.14089c-14.145162 0-25.611308-11.466146-25.611308-25.611308L487.897557 91.981924c0-14.145162 11.466146-25.611308 25.611308-25.611308s25.611308 11.467169 25.611308 25.611308l0 667.547659C539.121196 773.674745 527.65505 785.14089 513.508865 785.14089z" p-id="5581"></path></svg>